<svg xmlns="http://www.w3.org/2000/svg" viewBox="0 0 124.91 117.1"><defs><style>.cls-1{fill:#0b3954;}.cls-2{fill:#fff;}</style></defs><title>Asset 19</title><g id="Layer_2" data-name="Layer 2"><g id="Layer_1-2" data-name="Layer 1"><rect class="cls-1" width="124.91" height="93.68" rx="7.81"/><path class="cls-2" d="M62.46,70.76c-17.37,0-34.14-8.38-47.23-23.59L15,46.84l.28-.32c13.09-15.22,29.86-23.6,47.23-23.6s34.13,8.38,47.22,23.6l.28.32-.28.33C96.59,62.38,79.82,70.76,62.46,70.76Z"/><path class="cls-1" d="M62.45,64.17A17.33,17.33,0,1,1,79.78,46.84,17.34,17.34,0,0,1,62.45,64.17Zm0-31.23a13.9,13.9,0,1,0,13.91,13.9A13.91,13.91,0,0,0,62.45,32.94Z"/><polygon class="cls-1" points="93.68 109.3 117.1 109.3 117.1 117.1 7.81 117.1 7.81 109.3 31.23 109.3 31.23 101.49 93.68 101.49 93.68 109.3"/><path class="cls-1" d="M63.54,49.93l-3,.38L60.22,49H58.86l-.3,1.35-3-.3,2.38-7.95,3.31-.17ZM60,47.13l-.46-2.07-.44,2.07Z"/><path class="cls-1" d="M69.27,41.9l-.06,2.54-1.77.07L67,50.17l-2.52.13V44.64l-1.78.09.08-2.81Z"/></g></g></svg>